<svg id="socialproofnotifications-catalog-product-live-notification" xmlns="http://www.w3.org/2000/svg" viewBox="0 0 434.02 434.06"><title>socialproofnotifications-catalog-product-live</title><path d="M469,471.53H43a2.5,2.5,0,0,1-2.5-2.5c0-42.08,15.81-70.93,48.33-88.21C106.43,371,126.1,365.15,143.45,360c27-8.07,50.3-15,57-33.38v-33.4c-19.17-16.4-31-34.95-33.69-52.6-6.48-.6-12.88-7.3-16.82-17.93-4.52-12.18-4.56-27.2,5-34.58-3.14-8.5-8.42-24.05-7.47-42.18.61-26.15,6.15-46.27,17.41-63.25l.08-.1c21.34-29,52.67-43.11,93.07-42,24.64.91,41.77,9.74,52.35,27,22.08.08,38.2,13.75,47.94,40.67,9.5,27.22,8.82,53.63-2,78.55,9.15,4.93,10.13,18.28,8,28.88-2.39,11.81-9.34,24.07-19.24,24.92-3.68,16.69-19,44.45-33.56,52.07v34c5.69,18,32.31,26.73,72.18,38a219.38,219.38,0,0,1,41.5,17.2l.09.06c31.82,18.86,46.94,47.39,46.23,87.19A2.51,2.51,0,0,1,469,471.53Zm-423.48-5h421c0-36.55-14.31-62.84-43.75-80.32a213.2,213.2,0,0,0-40.47-16.78c-41.69-11.76-69.5-21-75.7-41.68a2.55,2.55,0,0,1-.1-.72V291a2.5,2.5,0,0,1,1.52-2.3c13-5.56,29.61-34,32.51-51.12a2.5,2.5,0,0,1,2.69-2.07c7.6.67,14-10.27,16.18-20.93,2.08-10.24.67-21.69-7.16-24.2a2.5,2.5,0,0,1-1.51-3.43c11.44-24.74,12.39-50,2.91-77.13C344.37,84.26,329.8,72,309.05,72.53a2.52,2.52,0,0,1-2.22-1.24c-9.58-16.47-25.59-24.9-48.93-25.76-38.66-1-68.55,12.4-88.86,39.93-10.7,16.15-16,35.42-16.55,60.63-1,18.55,5,34.43,7.84,42.06a2.52,2.52,0,0,1-1,3c-8.78,5.33-8.55,19.16-4.62,29.75,3.43,9.26,9.29,15.42,13.91,14.65a2.48,2.48,0,0,1,2.89,2.2c1.83,17.3,13.59,35.89,33.13,52.35a2.5,2.5,0,0,1,.89,1.91v35a2.63,2.63,0,0,1-.14.83c-7.39,21-32,28.38-60.46,36.9-17.11,5.11-36.51,10.91-53.69,20.45C60.65,401.45,46.1,427.32,45.51,466.53Z" transform="translate(-38.99 -38.97)" style="stroke:#000;stroke-miterlimit:10;stroke-width:3px"/></svg>