<svg xmlns="http://www.w3.org/2000/svg" width="144" height="75"><g id="Group_6115_br" data-name="Group 6115 br" transform="translate(-45 -678)"><text id="Compra_Segura" data-name="Compra Segura" transform="translate(128 712)" fill="#2c3038" font-size="14" font-family="Montserrat-Regular, Montserrat"><tspan x="0" y="0">Compra </tspan><tspan x="0" y="18">Segura</tspan></text><g id="Group_6114" data-name="Group 6114"><circle id="Ellipse_178" data-name="Ellipse 178" cx="37.5" cy="37.5" r="37.5" transform="translate(45 678)" fill="#f4f4f4"/><g id="icon_cart_m" transform="translate(63 696)"><path id="Path_4098" data-name="Path 4098" d="M28.5 28h-14a1 1 0 0 1-.94-.67L7.08 9H3.5a1 1 0 0 1 0-2h4.29a1 1 0 0 1 .94.67L11 14h22.5a1 1 0 0 1 .92 1.38l-5 12a1 1 0 0 1-.92.62zm-13.29-2h12.62L32 16H11.67zm.29 3a2 2 0 1 0 2 2 2 2 0 0 0-2-2zm12 0a2 2 0 1 0 2 2 2 2 0 0 0-2-2z" fill="#5a5a5a"/><path id="Rectangle_2021" data-name="Rectangle 2021" fill="none" d="M0 0h40v40H0z"/></g></g></g></svg>