<svg xmlns="http://www.w3.org/2000/svg" width="65" height="104"><g id="Group_6115" data-name="Group 6115" transform="translate(.107 -680)"><text id="Compra_Segura" data-name="Compra Segura" transform="translate(31.894 765)" fill="#2c3038" font-size="12" font-family="Montserrat-Regular, Montserrat"><tspan x="-25.836" y="0">Compra </tspan><tspan x="-21.36" y="16">Segura</tspan></text><g id="Group_6114" data-name="Group 6114" transform="translate(0 2)"><circle id="Ellipse_178" data-name="Ellipse 178" cx="32.5" cy="32.5" r="32.5" transform="translate(-.107 678)" fill="#f4f4f4"/><g id="icon_cart_m" transform="translate(13 691)"><path id="Path_4098" data-name="Path 4098" d="M28.5 28h-14a1 1 0 0 1-.94-.67L7.08 9H3.5a1 1 0 0 1 0-2h4.29a1 1 0 0 1 .94.67L11 14h22.5a1 1 0 0 1 .92 1.38l-5 12a1 1 0 0 1-.92.62zm-13.29-2h12.62L32 16H11.67zm.29 3a2 2 0 1 0 2 2 2 2 0 0 0-2-2zm12 0a2 2 0 1 0 2 2 2 2 0 0 0-2-2z" transform="translate(1.535)" fill="#5a5a5a"/><path id="Rectangle_2021" data-name="Rectangle 2021" transform="translate(-.106)" fill="none" d="M0 0h40v40H0z"/></g></g></g></svg>