<?xml version="1.0" encoding="utf-8"?>
<!-- Generator: Adobe Illustrator 25.4.1, SVG Export Plug-In . SVG Version: 6.00 Build 0)  -->
<svg version="1.1" id="Layer_1" xmlns="http://www.w3.org/2000/svg" xmlns:xlink="http://www.w3.org/1999/xlink" x="0px" y="0px"
	 viewBox="0 0 78 104" style="enable-background:new 0 0 78 104;" xml:space="preserve">
<style type="text/css">
	.st0{fill:#2C3038;}
	.st1{font-family:'HPSimplified-Light';}
	.st2{font-size:12px;}
	.st3{fill:#F4F4F4;}
	.st4{fill:#5A5A5A;}
	.st5{fill:none;}
</style>
<g id="Group_6116" transform="translate(2 -680)">
	<text transform="matrix(1 0 0 1 20.3505 765)" class="st0 st1 st2">Cuotas</text>
	<text transform="matrix(1 0 0 1 12.2325 781)" class="st0 st1 st2">sin interés</text>
	<g id="Group_6114" transform="translate(4 2)">
		<circle id="Ellipse_178" class="st3" cx="33" cy="710.5" r="32.5"/>
		<g id="icon_payment_m" transform="translate(13 691)">
			<path id="Path_4131" class="st4" d="M33.5,9.6h-26c-1.7,0-3,1.3-3,3v14.8c0,1.7,1.3,3,3,3h26c1.7,0,3-1.3,3-3V12.6
				C36.5,11,35.2,9.6,33.5,9.6z M7.5,11.6h26c0.6,0,1,0.4,1,1V14h-28v-1.4C6.5,12.1,6.9,11.6,7.5,11.6z M33.5,28.4h-26
				c-0.6,0-1-0.4-1-1V16h28v11.4C34.5,27.9,34.1,28.4,33.5,28.4z M32.5,26h-8v-4h8V26z"/>
			<path id="Rectangle_2055" class="st5" d="M0.5,0h40v40h-40V0z"/>
		</g>
	</g>
</g>
</svg>
